<?xml version="1.0" standalone="no"?><!DOCTYPE svg PUBLIC "-//W3C//DTD SVG 1.1//EN" "http://www.w3.org/Graphics/SVG/1.1/DTD/svg11.dtd"><svg class="icon" height="512" viewBox="0 0 1024 1024" version="1.1" xmlns="http://www.w3.org/2000/svg"><path d="M642.76 1h-167.106v254.81c-24.966-6.506-45.572-8.676-72.708-8.676-174.698 0-287.562 110.68-287.562 281.04 0 176.882 106.352 269.112 310.362 269.112 68.33 0 131.278-6.508 217.016-22.784V1z m-167.106 657.406c-23.876 3.246-39.066 4.324-57.51 4.324-85.73 0-132.394-48.818-132.394-137.808 0-91.146 48.826-143.232 133.486-143.232 20.606 0 36.874 2.168 56.418 8.676v268.04zM908.618 1.898v171.452h-167.114V1.898h167.114z m-167.114 257.166h167.114v387.398c0 133.47-9.778 197.486-39.074 252.834-27.12 53.18-62.932 86.806-136.73 123.704l-155.178-73.792c73.778-34.718 109.62-65.084 132.394-111.766 23.868-47.748 31.474-103.088 31.474-248.504V259.064z" fill="" /></svg>